<?xml version="1.0" encoding="UTF-8" standalone="no"?>
<!-- Uploaded to: SVG Repo, www.svgrepo.com, Generator: SVG Repo Mixer Tools -->

<svg
   fill="#000000"
   width="128"
   height="128"
   viewBox="-4.5 0 5.12 5.12"
   version="1.1"
   id="svg6"
   sodipodi:docname="home_icon.svg"
   inkscape:version="1.1.2 (0a00cf5339, 2022-02-04)"
   xmlns:inkscape="http://www.inkscape.org/namespaces/inkscape"
   xmlns:sodipodi="http://sodipodi.sourceforge.net/DTD/sodipodi-0.dtd"
   xmlns="http://www.w3.org/2000/svg"
   xmlns:svg="http://www.w3.org/2000/svg"
   xmlns:rdf="http://www.w3.org/1999/02/22-rdf-syntax-ns#"
   xmlns:cc="http://creativecommons.org/ns#"
   xmlns:dc="http://purl.org/dc/elements/1.1/">
  <defs
     id="defs10" />
  <sodipodi:namedview
     id="namedview8"
     pagecolor="#ffffff"
     bordercolor="#111111"
     borderopacity="1"
     inkscape:pageshadow="0"
     inkscape:pageopacity="0"
     inkscape:pagecheckerboard="1"
     showgrid="false"
     inkscape:snap-midpoints="true"
     inkscape:snap-smooth-nodes="true"
     inkscape:snap-intersection-paths="true"
     inkscape:zoom="2.08"
     inkscape:cx="34.855769"
     inkscape:cy="37.740385"
     inkscape:window-width="1920"
     inkscape:window-height="1005"
     inkscape:window-x="0"
     inkscape:window-y="0"
     inkscape:window-maximized="1"
     inkscape:current-layer="svg6"
     width="128px" />
  <title
     id="title2">home</title>
  <metadata
     id="metadata827">
    <rdf:RDF>
      <cc:Work
         rdf:about="">
        <dc:title>home</dc:title>
      </cc:Work>
    </rdf:RDF>
  </metadata>
  <path
     d="m -0.23153041,1.6882345 0.79425516,0.7258947 c 0.0959732,0.088957 0.0685733,0.1575365 -0.0615733,0.1575365 H -0.0945946 v 1.8965725 c 0,0.1301478 -0.10954655,0.246493 -0.23970107,0.246493 H -1.3682518 V 3.3862979 c 0,-0.1301479 -0.1163466,-0.2464931 -0.2464931,-0.2464931 h -0.6505233 c -0.1301465,0 -0.2464931,0.1163452 -0.2464931,0.2464931 v 1.3284333 h -1.0339562 c -0.1301465,0 -0.2464931,-0.1163452 -0.2464931,-0.246493 V 2.5716657 h -0.588954 c -0.1301465,0 -0.1575358,-0.06858 -0.061573,-0.1575365 L -2.121539,0.30524413 c 0.095973,-0.0889572 0.2602957,-0.0889572 0.3628369,0 l 0.5271674,0.47239028 V 0.40099296 c 0,-0.13014786 0.1163466,-0.24649307 0.24649311,-0.24649307 h 0.51358077 c 0.13014653,0 0.23970108,0.11634521 0.23970108,0.24649307 V 1.6882345 Z"
     id="path4"
     style="fill:#ffffff;stroke-width:0.219105" />
</svg>
