<?xml version="1.0" encoding="UTF-8" standalone="no"?>
<!-- Created with Inkscape (http://www.inkscape.org/) -->

<svg
   width="96"
   height="96"
   viewBox="0 0 25.399999 25.400001"
   version="1.1"
   id="svg5"
   inkscape:version="1.1.2 (0a00cf5339, 2022-02-04)"
   sodipodi:docname="user_icon.svg"
   xmlns:inkscape="http://www.inkscape.org/namespaces/inkscape"
   xmlns:sodipodi="http://sodipodi.sourceforge.net/DTD/sodipodi-0.dtd"
   xmlns="http://www.w3.org/2000/svg"
   xmlns:svg="http://www.w3.org/2000/svg">
  <sodipodi:namedview
     id="namedview7"
     pagecolor="#ffffff"
     bordercolor="#111111"
     borderopacity="1"
     inkscape:pageshadow="0"
     inkscape:pageopacity="0"
     inkscape:pagecheckerboard="1"
     inkscape:document-units="mm"
     showgrid="false"
     units="px"
     width="64px"
     inkscape:snap-intersection-paths="true"
     inkscape:snap-smooth-nodes="true"
     inkscape:snap-midpoints="true"
     inkscape:snap-object-midpoints="true"
     inkscape:zoom="5.9295174"
     inkscape:cx="43.426806"
     inkscape:cy="46.799761"
     inkscape:window-width="1920"
     inkscape:window-height="1005"
     inkscape:window-x="0"
     inkscape:window-y="0"
     inkscape:window-maximized="1"
     inkscape:current-layer="layer1" />
  <defs
     id="defs2" />
  <g
     inkscape:label="Layer 1"
     inkscape:groupmode="layer"
     id="layer1">
    <path
       id="path968"
       style="fill:#e6e6e6;stroke-width:19.3803"
       d="M 12.7,0 A 12.699999,12.699999 0 0 0 0,12.7 12.699999,12.699999 0 0 0 12.7,25.4 12.699999,12.699999 0 0 0 25.4,12.7 12.699999,12.699999 0 0 0 12.7,0 Z m 0,4.3865538 A 4.156868,4.156868 0 0 1 16.85711,8.5428896 4.156868,4.156868 0 0 1 12.7,12.7 4.156868,4.156868 0 0 1 8.5428896,8.5428896 4.156868,4.156868 0 0 1 12.7,4.3865538 Z M 9.3614442,15.564941 a 6.6769282,6.6769282 0 0 1 6.6771118,0 6.6769282,6.6769282 0 0 1 3.338556,5.782593 H 12.7 6.0228881 a 6.6769282,6.6769282 0 0 1 3.3385561,-5.782593 z" />
  </g>
</svg>
